<?xml version="1.0" encoding="UTF-8" standalone="no"?>
<!-- Created with Inkscape (http://www.inkscape.org/) -->

<svg
   xmlns:dc="http://purl.org/dc/elements/1.1/"
   xmlns:cc="http://creativecommons.org/ns#"
   xmlns:rdf="http://www.w3.org/1999/02/22-rdf-syntax-ns#"
   xmlns:svg="http://www.w3.org/2000/svg"
   xmlns="http://www.w3.org/2000/svg"
   xmlns:xlink="http://www.w3.org/1999/xlink"
   xmlns:sodipodi="http://sodipodi.sourceforge.net/DTD/sodipodi-0.dtd"
   xmlns:inkscape="http://www.inkscape.org/namespaces/inkscape"
   width="1024"
   height="500"
   id="svg2"
   version="1.1"
   inkscape:version="0.48.4 r9939"
   sodipodi:docname="feature_graphic.svg"
   inkscape:export-filename="/home/workspace/even_better_password_maker/play_art/feature_graphic.png"
   inkscape:export-xdpi="90"
   inkscape:export-ydpi="90">
  <defs
     id="defs4">
    <radialGradient
       r="93.969"
       gradientTransform="matrix(1,0,0,0.15,0,581.67)"
       cx="441.65"
       cy="684.32"
       gradientUnits="userSpaceOnUse"
       id="radialGradient7603">
      <stop
         offset="0"
         style="stop-color:#ffffff"
         id="stop7599" />
      <stop
         offset="1"
         style="stop-color:#ffffff;stop-opacity:0"
         id="stop7601" />
    </radialGradient>
    <linearGradient
       x1="67.281"
       y1="86.338"
       x2="96.143"
       gradientUnits="userSpaceOnUse"
       spreadMethod="reflect"
       y2="111.2"
       id="linearGradient40354">
      <stop
         offset="0"
         style="stop-color:#5e5e5e"
         id="stop14815" />
      <stop
         offset=".12262"
         style="stop-color:#828282"
         id="stop14821" />
      <stop
         offset=".12262"
         style="stop-color:#7d7d7d"
         id="stop14823" />
      <stop
         offset=".18419"
         style="stop-color:#424242"
         id="stop14825" />
      <stop
         offset=".25575"
         style="stop-color:#949494"
         id="stop14827" />
      <stop
         offset="0.27"
         style="stop-color:#b5b5b5"
         id="stop14829" />
      <stop
         offset=".29561"
         style="stop-color:#616161"
         id="stop14831" />
      <stop
         offset=".36976"
         style="stop-color:#303030"
         id="stop14833" />
      <stop
         offset=".42504"
         style="stop-color:#737373"
         id="stop14835" />
      <stop
         offset=".44522"
         style="stop-color:#bababa"
         id="stop14837" />
      <stop
         offset=".45495"
         style="stop-color:#575757"
         id="stop14839" />
      <stop
         offset=".47408"
         style="stop-color:#b3b3b3"
         id="stop14841" />
      <stop
         offset=".52021"
         style="stop-color:#333333"
         id="stop14843" />
      <stop
         offset=".54546"
         style="stop-color:#686868"
         id="stop14845" />
      <stop
         offset=".61938"
         style="stop-color:#2e2e2e"
         id="stop14847" />
      <stop
         offset=".70619"
         style="stop-color:#878787"
         id="stop14849" />
      <stop
         offset=".73712"
         style="stop-color:#b5b5b5"
         id="stop14851" />
      <stop
         offset=".79246"
         style="stop-color:#636363"
         id="stop14853" />
      <stop
         offset=".80703"
         style="stop-color:#353535"
         id="stop14855" />
      <stop
         offset=".85104"
         style="stop-color:#a8a8a8"
         id="stop14857" />
      <stop
         offset="1"
         style="stop-color:#636363"
         id="stop14817" />
    </linearGradient>
    <radialGradient
       r="100.15"
       gradientTransform="matrix(1.904,-3.655e-7,1.0103e-7,0.5799,-117.75,36.36)"
       cx="130.25"
       cy="86.549"
       gradientUnits="userSpaceOnUse"
       id="radialGradient40356">
      <stop
         offset="0"
         style="stop-color:#000000;stop-opacity:0"
         id="stop15736" />
      <stop
         offset="1"
         style="stop-color:#000000"
         id="stop15738" />
    </radialGradient>
    <radialGradient
       r="100.15"
       gradientTransform="matrix(0.94529,-0.0050978,0.0068368,1.2678,7.8377,42.783)"
       cx="143.45"
       cy="1.4748"
       gradientUnits="userSpaceOnUse"
       id="radialGradient40358">
      <stop
         offset="0"
         style="stop-color:#ffffff"
         id="stop25411" />
      <stop
         offset="1"
         style="stop-color:#ffffff;stop-opacity:0"
         id="stop25413" />
    </radialGradient>
    <radialGradient
       r="100.15"
       gradientTransform="matrix(0.54781,-0.013095,0.011116,0.46499,53.913,47.695)"
       cx="121.34"
       cy="86.178"
       gradientUnits="userSpaceOnUse"
       id="radialGradient40360">
      <stop
         offset="0"
         style="stop-color:#bebebe"
         id="stop16619" />
      <stop
         offset="1"
         style="stop-color:#bebebe;stop-opacity:0"
         id="stop16621" />
    </radialGradient>
    <linearGradient
       x1="211.04"
       y1="64.63"
       gradientTransform="translate(-1.4843,0.37108)"
       x2="197.75"
       gradientUnits="userSpaceOnUse"
       y2="103.59"
       id="linearGradient40362">
      <stop
         offset="0"
         style="stop-color:#c2c2c2"
         id="stop17502" />
      <stop
         offset="1"
         style="stop-color:#c2c2c2;stop-opacity:0"
         id="stop17504" />
    </linearGradient>
    <linearGradient
       x1="268.49"
       y1="78.375"
       x2="166.13"
       gradientUnits="userSpaceOnUse"
       y2="86.612"
       id="linearGradient40364">
      <stop
         offset="0"
         style="stop-color:#ffffff"
         id="stop24526" />
      <stop
         offset="1"
         style="stop-color:#ffffff;stop-opacity:0"
         id="stop24528" />
    </linearGradient>
    <linearGradient
       x1="215.6"
       y1="78.375"
       gradientTransform="matrix(1.0037,0,0,1,-0.67263,-0.067378)"
       x2="215.64"
       gradientUnits="userSpaceOnUse"
       y2="90.207"
       id="linearGradient40366">
      <stop
         offset="0"
         style="stop-color:#000000"
         id="stop19276" />
      <stop
         offset=".5"
         style="stop-color:#616161;stop-opacity:0"
         id="stop19280" />
      <stop
         offset=".65789"
         style="stop-color:#000000;stop-opacity:.75"
         id="stop19282" />
      <stop
         offset="1"
         style="stop-color:#c2c2c2;stop-opacity:0"
         id="stop19278" />
    </linearGradient>
    <radialGradient
       r="4.4506"
       gradientTransform="matrix(1.233,-9.1545e-6,1.1648e-5,1.5688,-41.716,-59.653)"
       cx="179.05"
       cy="106.6"
       gradientUnits="userSpaceOnUse"
       id="radialGradient40368">
      <stop
         offset="0"
         style="stop-color:#ffffff"
         id="stop31582" />
      <stop
         offset="1"
         style="stop-color:#ffffff;stop-opacity:0"
         id="stop31584" />
    </radialGradient>
    <radialGradient
       r="4.4506"
       gradientTransform="matrix(1.233,-1.8758e-5,1.1648e-5,1.3579,-41.716,-37.153)"
       cx="179.05"
       cy="106.4"
       gradientUnits="userSpaceOnUse"
       id="radialGradient40370">
      <stop
         offset="0"
         style="stop-color:#ffffff"
         id="stop30701" />
      <stop
         offset="1"
         style="stop-color:#ffffff;stop-opacity:0"
         id="stop30703" />
    </radialGradient>
    <radialGradient
       r="4.4506"
       gradientTransform="matrix(1.3026,-8.8739e-7,5.5411e-7,2.0948,-54.182,-115.84)"
       cx="179.05"
       cy="107.15"
       gradientUnits="userSpaceOnUse"
       id="radialGradient40372">
      <stop
         offset="0"
         style="stop-color:#ffffff"
         id="stop29820" />
      <stop
         offset="1"
         style="stop-color:#ffffff;stop-opacity:0"
         id="stop29822" />
    </radialGradient>
    <radialGradient
       r="4.4506"
       gradientTransform="matrix(1.2663,1.1408e-6,-1.1168e-6,1.9852,-47.673,-104.1)"
       cx="179.05"
       cy="106.67"
       gradientUnits="userSpaceOnUse"
       id="radialGradient40374">
      <stop
         offset="0"
         style="stop-color:#ffffff"
         id="stop28939" />
      <stop
         offset="1"
         style="stop-color:#ffffff;stop-opacity:0"
         id="stop28941" />
    </radialGradient>
    <radialGradient
       r="4.4506"
       gradientTransform="matrix(2.1316,-1.059e-6,1.0019e-6,1.4083,-206.46,-42.045)"
       cx="182.95"
       cy="102.98"
       gradientUnits="userSpaceOnUse"
       id="radialGradient40376">
      <stop
         offset="0"
         style="stop-color:#ffffff"
         id="stop28058" />
      <stop
         offset="1"
         style="stop-color:#ffffff;stop-opacity:0"
         id="stop28060" />
    </radialGradient>
    <radialGradient
       r="4.4506"
       gradientTransform="matrix(1.2174,1.0449e-7,-6.6386e-8,1.2692,-39.344,-27.725)"
       cx="180.99"
       cy="102.98"
       gradientUnits="userSpaceOnUse"
       id="radialGradient40378">
      <stop
         offset="0"
         style="stop-color:#ffffff"
         id="stop27177" />
      <stop
         offset="1"
         style="stop-color:#ffffff;stop-opacity:0"
         id="stop27179" />
    </radialGradient>
    <radialGradient
       r="20.11"
       gradientTransform="matrix(1.2941,0,0,1.3646,-43.049,-23.898)"
       cx="146.37"
       cy="56.648"
       gradientUnits="userSpaceOnUse"
       id="radialGradient40380">
      <stop
         offset="0"
         style="stop-color:#ffffff"
         id="stop40322" />
      <stop
         offset="1"
         style="stop-color:#ffffff;stop-opacity:0"
         id="stop40324" />
    </radialGradient>
    <radialGradient
       r="342.99"
       gradientTransform="matrix(1,0,0,0.022831,0,677.88)"
       cx="393.1"
       cy="693.71"
       gradientUnits="userSpaceOnUse"
       id="radialGradient6716">
      <stop
         offset="0"
         style="stop-color:#000000"
         id="stop6712" />
      <stop
         offset="1"
         style="stop-color:#000000;stop-opacity:0"
         id="stop6714" />
    </radialGradient>
    <linearGradient
       inkscape:collect="always"
       xlink:href="#linearGradient40354"
       id="linearGradient3410"
       gradientUnits="userSpaceOnUse"
       spreadMethod="reflect"
       x1="67.281"
       y1="86.338"
       x2="96.143"
       y2="111.2" />
    <radialGradient
       inkscape:collect="always"
       xlink:href="#radialGradient40356"
       id="radialGradient3412"
       gradientUnits="userSpaceOnUse"
       gradientTransform="matrix(1.904,-3.655e-7,1.0103e-7,0.5799,-117.75,36.36)"
       cx="130.25"
       cy="86.549"
       r="100.15" />
    <radialGradient
       inkscape:collect="always"
       xlink:href="#radialGradient40358"
       id="radialGradient3414"
       gradientUnits="userSpaceOnUse"
       gradientTransform="matrix(0.94529,-0.0050978,0.0068368,1.2678,7.8377,42.783)"
       cx="143.45"
       cy="1.4748"
       r="100.15" />
    <radialGradient
       inkscape:collect="always"
       xlink:href="#radialGradient40360"
       id="radialGradient3416"
       gradientUnits="userSpaceOnUse"
       gradientTransform="matrix(0.54781,-0.013095,0.011116,0.46499,53.913,47.695)"
       cx="121.34"
       cy="86.178"
       r="100.15" />
    <linearGradient
       inkscape:collect="always"
       xlink:href="#linearGradient40362"
       id="linearGradient3418"
       gradientUnits="userSpaceOnUse"
       gradientTransform="translate(-1.4843,0.37108)"
       x1="211.04"
       y1="64.63"
       x2="197.75"
       y2="103.59" />
    <linearGradient
       inkscape:collect="always"
       xlink:href="#linearGradient40364"
       id="linearGradient3420"
       gradientUnits="userSpaceOnUse"
       x1="268.49"
       y1="78.375"
       x2="166.13"
       y2="86.612" />
    <linearGradient
       inkscape:collect="always"
       xlink:href="#linearGradient40366"
       id="linearGradient3422"
       gradientUnits="userSpaceOnUse"
       gradientTransform="matrix(1.0037,0,0,1,-0.67263,-0.067378)"
       x1="215.6"
       y1="78.375"
       x2="215.64"
       y2="90.207" />
    <radialGradient
       inkscape:collect="always"
       xlink:href="#radialGradient40368"
       id="radialGradient3424"
       gradientUnits="userSpaceOnUse"
       gradientTransform="matrix(1.233,-9.1545e-6,1.1648e-5,1.5688,-41.716,-59.653)"
       cx="179.05"
       cy="106.6"
       r="4.4506" />
    <radialGradient
       inkscape:collect="always"
       xlink:href="#radialGradient40370"
       id="radialGradient3426"
       gradientUnits="userSpaceOnUse"
       gradientTransform="matrix(1.233,-1.8758e-5,1.1648e-5,1.3579,-41.716,-37.153)"
       cx="179.05"
       cy="106.4"
       r="4.4506" />
    <radialGradient
       inkscape:collect="always"
       xlink:href="#radialGradient40372"
       id="radialGradient3428"
       gradientUnits="userSpaceOnUse"
       gradientTransform="matrix(1.3026,-8.8739e-7,5.5411e-7,2.0948,-54.182,-115.84)"
       cx="179.05"
       cy="107.15"
       r="4.4506" />
    <radialGradient
       inkscape:collect="always"
       xlink:href="#radialGradient40374"
       id="radialGradient3430"
       gradientUnits="userSpaceOnUse"
       gradientTransform="matrix(1.2663,1.1408e-6,-1.1168e-6,1.9852,-47.673,-104.1)"
       cx="179.05"
       cy="106.67"
       r="4.4506" />
    <radialGradient
       inkscape:collect="always"
       xlink:href="#radialGradient40376"
       id="radialGradient3432"
       gradientUnits="userSpaceOnUse"
       gradientTransform="matrix(2.1316,-1.059e-6,1.0019e-6,1.4083,-206.46,-42.045)"
       cx="182.95"
       cy="102.98"
       r="4.4506" />
    <radialGradient
       inkscape:collect="always"
       xlink:href="#radialGradient40378"
       id="radialGradient3434"
       gradientUnits="userSpaceOnUse"
       gradientTransform="matrix(1.2174,1.0449e-7,-6.6386e-8,1.2692,-39.344,-27.725)"
       cx="180.99"
       cy="102.98"
       r="4.4506" />
    <radialGradient
       inkscape:collect="always"
       xlink:href="#radialGradient40380"
       id="radialGradient3436"
       gradientUnits="userSpaceOnUse"
       gradientTransform="matrix(1.2941,0,0,1.3646,-43.049,-23.898)"
       cx="146.37"
       cy="56.648"
       r="20.11" />
  </defs>
  <sodipodi:namedview
     id="base"
     pagecolor="#ffffff"
     bordercolor="#666666"
     borderopacity="1.0"
     inkscape:pageopacity="0.0"
     inkscape:pageshadow="2"
     inkscape:zoom="0.49497475"
     inkscape:cx="296.09572"
     inkscape:cy="497.39467"
     inkscape:document-units="px"
     inkscape:current-layer="layer1"
     showgrid="false"
     inkscape:window-width="683"
     inkscape:window-height="756"
     inkscape:window-x="0"
     inkscape:window-y="12"
     inkscape:window-maximized="0" />
  <metadata
     id="metadata7">
    <rdf:RDF>
      <cc:Work
         rdf:about="">
        <dc:format>image/svg+xml</dc:format>
        <dc:type
           rdf:resource="http://purl.org/dc/dcmitype/StillImage" />
        <dc:title />
      </cc:Work>
    </rdf:RDF>
  </metadata>
  <g
     inkscape:label="Layer 1"
     inkscape:groupmode="layer"
     id="layer1"
     transform="translate(0,-552.36218)">
    <rect
       style="fill:#210000;fill-opacity:1;stroke:none"
       id="rect3050"
       width="1032.8126"
       height="509.95551"
       x="-2.8349028"
       y="549.52728" />
    <text
       xml:space="preserve"
       style="font-size:40px;font-style:normal;font-weight:normal;line-height:125%;letter-spacing:0px;word-spacing:0px;fill:#000000;fill-opacity:1;stroke:none;font-family:Sans"
       x="294.57141"
       y="689.21936"
       id="text3913"
       sodipodi:linespacing="125%"><tspan
         sodipodi:role="line"
         id="tspan3915"
         x="294.57141"
         y="689.21936"
         style="font-size:64px;font-style:normal;font-variant:normal;font-weight:normal;font-stretch:normal;fill:#e3dbdb;fill-opacity:1;font-family:Utopia;-inkscape-font-specification:Utopia">Even Better Pass Maker</tspan></text>
    <text
       xml:space="preserve"
       style="font-size:40px;font-style:normal;font-weight:normal;text-align:center;line-height:125%;letter-spacing:0px;word-spacing:0px;text-anchor:middle;fill:#000000;fill-opacity:1;stroke:none;font-family:Sans"
       x="628.9162"
       y="762.00787"
       id="text3913-2"
       sodipodi:linespacing="125%"><tspan
         sodipodi:role="line"
         id="tspan3915-4"
         x="628.9162"
         y="762.00787"
         style="font-size:40px;font-style:normal;font-variant:normal;font-weight:normal;font-stretch:normal;text-align:center;text-anchor:middle;fill:#e3dbdb;fill-opacity:1;font-family:Utopia;-inkscape-font-specification:Utopia">Generate unique passwords</tspan><tspan
         sodipodi:role="line"
         x="628.9162"
         y="812.00787"
         style="font-size:40px;font-style:normal;font-variant:normal;font-weight:normal;font-stretch:normal;text-align:center;text-anchor:middle;fill:#e3dbdb;fill-opacity:1;font-family:Utopia;-inkscape-font-specification:Utopia"
         id="tspan3958">for each website</tspan><tspan
         sodipodi:role="line"
         x="628.9162"
         y="862.00787"
         style="font-size:40px;font-style:normal;font-variant:normal;font-weight:normal;font-stretch:normal;text-align:center;text-anchor:middle;fill:#e3dbdb;fill-opacity:1;font-family:Utopia;-inkscape-font-specification:Utopia"
         id="tspan3013" /><tspan
         sodipodi:role="line"
         x="628.9162"
         y="912.00787"
         style="font-size:40px;font-style:normal;font-variant:normal;font-weight:normal;font-stretch:normal;text-align:center;text-anchor:middle;fill:#e3dbdb;fill-opacity:1;font-family:Utopia;-inkscape-font-specification:Utopia"
         id="tspan3015">Always offline and no secrets</tspan><tspan
         sodipodi:role="line"
         x="628.9162"
         y="962.00787"
         style="font-size:40px;font-style:normal;font-variant:normal;font-weight:normal;font-stretch:normal;text-align:center;text-anchor:middle;fill:#e3dbdb;fill-opacity:1;font-family:Utopia;-inkscape-font-specification:Utopia"
         id="tspan3017">stored on disk</tspan><tspan
         sodipodi:role="line"
         x="628.9162"
         y="1012.0079"
         style="font-size:40px;font-style:normal;font-variant:normal;font-weight:normal;font-stretch:normal;text-align:center;text-anchor:middle;fill:#e3dbdb;fill-opacity:1;font-family:Utopia;-inkscape-font-specification:Utopia"
         id="tspan3009" /></text>
    <g
       id="g40337"
       transform="matrix(0.36546336,1.4387816,-1.4387816,0.36546336,248.0362,517.83531)">
      <path
         inkscape:connector-curvature="0"
         id="path604"
         style="fill:url(#linearGradient3410)"
         d="m 116.69,36.062 c -9.9,0.139 -19.737,3.066 -27.846,9.094 -15.844,11.78 -23.695,30.982 -21.063,50.5 0.736,5.454 4.347,10.384 5.063,15.654 5.091,4.88 8.412,10.97 14.281,15.22 17.275,12.5 41.955,13.82 59.815,1.5 4.98,-3.44 9.12,-7.69 12.68,-12.56 2.39,-3.26 4.45,-7.89 8.66,-9.16 3.64,-1.09 6.39,2.91 10.03,2.35 2.65,-0.41 2.02,-3.72 4.25,-4.69 1.27,-0.55 8.95,-3.14 9.91,-2.88 1.9,0.53 2.58,2.95 4.84,2.79 2.98,-0.22 3.93,-3.923 6.6,-4.568 2.39,-0.58 4.12,2.828 5.84,3.938 3.95,2.54 7.7,-1.02 9.47,-4.375 2.79,1.455 4.45,5.425 7.72,5.685 3.08,0.25 5.05,-3.27 7.65,-2.97 4.18,0.49 6.85,4.44 11.88,2.91 5.93,-1.8 11.28,-9.591 16.06,-13.406 1.86,-1.485 4.72,-3.24 5.03,-5.844 0.34,-2.854 -3.44,-6.901 -5.28,-8.812 -3.39,-3.525 -11.84,-1.876 -16.37,-1.876 -15.05,0 -30.02,-1.186 -45.03,-1.187 -6.1,-0.001 -18.88,2.994 -18.97,-5.313 l -10.69,-0.437 -8.28,-3.719 c -1.31,-7.239 -8.49,-13.716 -14.19,-17.844 -9.17,-6.637 -20.66,-10.159 -32.06,-10 z M 92.812,73.5 c 13.478,-0.331 16.808,20.443 2.438,23.156 -14.841,2.802 -19.68,-20.314 -4.5,-22.937 0.711,-0.123 1.4,-0.203 2.062,-0.219 z" />
      <path
         inkscape:connector-curvature="0"
         id="path14859"
         style="fill:url(#radialGradient3412)"
         d="m 116.61,36.274 c -9.9,0.139 -19.731,3.065 -27.84,9.094 -15.843,11.78 -23.694,30.982 -21.062,50.5 0.736,5.452 4.346,10.382 5.062,15.652 5.091,4.89 8.412,10.98 14.282,15.22 17.278,12.5 41.958,13.82 59.808,1.5 4.99,-3.43 9.12,-7.68 12.69,-12.56 2.39,-3.26 4.45,-7.89 8.66,-9.16 3.64,-1.09 6.39,2.91 10.03,2.35 2.65,-0.41 2.02,-3.72 4.25,-4.69 1.27,-0.55 8.94,-3.14 9.91,-2.87 1.9,0.52 2.58,2.94 4.84,2.78 2.98,-0.21 3.93,-3.92 6.59,-4.566 2.4,-0.58 4.13,2.826 5.85,3.936 3.95,2.54 7.7,-1.02 9.47,-4.373 2.79,1.453 4.45,5.423 7.71,5.683 3.09,0.26 5.06,-3.27 7.66,-2.96 4.18,0.48 6.84,4.43 11.88,2.9 5.92,-1.8 11.27,-9.589 16.06,-13.404 1.86,-1.485 4.72,-3.24 5.03,-5.844 0.34,-2.854 -3.44,-6.902 -5.28,-8.813 -3.4,-3.525 -11.85,-1.875 -16.38,-1.875 -15.04,0 -30.02,-1.186 -45.03,-1.187 -6.1,-0.001 -18.87,2.993 -18.97,-5.313 l -10.68,-0.437 -8.29,-3.719 c -1.3,-7.239 -8.48,-13.716 -14.18,-17.844 -9.17,-6.637 -20.67,-10.159 -32.07,-10 z M 92.739,73.712 c 13.481,-0.331 16.811,20.443 2.438,23.156 -14.841,2.802 -19.681,-20.314 -4.5,-22.937 0.71,-0.123 1.399,-0.203 2.062,-0.219 z" />
      <path
         inkscape:connector-curvature="0"
         id="path24532"
         style="opacity:0.8;fill:url(#radialGradient3414)"
         d="m 116.67,36.441 c -9.9,0.139 -19.737,3.065 -27.846,9.094 -15.843,11.78 -23.694,26.981 -21.062,46.5 0.736,5.454 4.346,10.385 5.062,15.655 5.091,4.88 8.412,10.97 14.281,15.22 17.275,12.5 37.955,13.82 55.815,1.5 4.98,-3.44 9.12,-7.69 12.69,-12.56 2.38,-3.26 8.44,-5.89 12.65,-7.16 3.64,-1.09 6.39,2.91 10.03,2.34 2.65,-0.41 2.02,-3.71 4.25,-4.68 1.27,-0.56 8.95,-3.142 9.91,-2.878 1.9,0.524 2.58,2.938 4.84,2.778 2.98,-0.21 3.93,-3.914 6.6,-4.559 2.39,-0.58 4.12,2.829 5.84,3.939 3.95,2.54 7.7,-1.02 9.47,-4.376 2.79,1.456 4.45,5.416 7.72,5.686 3.08,0.25 5.05,-3.27 7.65,-2.968 4.18,0.488 6.85,4.438 11.88,2.908 5.93,-1.81 7.28,-7.592 12.06,-11.408 1.86,-1.484 4.72,-3.239 5.03,-5.843 0.35,-2.855 -3.44,-6.902 -5.28,-8.813 -3.39,-3.525 -11.84,-1.875 -16.37,-1.875 -15.05,0 -30.02,-1.186 -45.03,-1.187 -6.1,-0.001 -18.87,2.993 -18.97,-5.313 l -10.69,-0.437 -8.28,-3.719 c -1.31,-7.239 -8.49,-13.716 -14.19,-17.844 -9.17,-6.637 -16.66,-10.16 -28.06,-10 z M 92.793,73.879 C 106.27,73.548 109.6,94.322 95.23,97.035 80.39,99.837 75.55,76.721 90.73,74.097 c 0.711,-0.122 1.4,-0.202 2.063,-0.218 z" />
      <path
         inkscape:connector-curvature="0"
         id="path15742"
         style="fill:url(#radialGradient3416)"
         d="m 116.61,35.903 c -9.9,0.139 -19.731,3.065 -27.84,9.094 -15.843,11.78 -23.694,30.981 -21.062,50.5 0.736,5.453 4.346,10.383 5.062,15.653 5.091,4.88 8.412,10.98 14.282,15.22 17.278,12.5 41.958,13.82 59.808,1.5 4.99,-3.43 9.12,-7.69 12.69,-12.56 2.39,-3.26 4.45,-7.89 8.66,-9.16 3.64,-1.09 6.39,2.91 10.03,2.35 2.65,-0.41 2.02,-3.72 4.25,-4.69 1.27,-0.55 8.94,-3.14 9.91,-2.88 1.9,0.53 2.58,2.95 4.84,2.79 2.98,-0.22 3.93,-3.922 6.59,-4.567 2.4,-0.58 4.13,2.827 5.85,3.937 3.95,2.54 7.7,-1.02 9.47,-4.374 2.79,1.454 4.45,5.424 7.71,5.684 3.09,0.25 5.06,-3.27 7.66,-2.97 4.18,0.49 6.84,4.44 11.88,2.91 5.92,-1.8 11.27,-9.59 16.06,-13.406 1.86,-1.484 4.72,-3.239 5.03,-5.843 0.34,-2.855 -3.44,-6.902 -5.28,-8.813 -3.4,-3.525 -11.85,-1.875 -16.38,-1.875 -15.04,0 -30.02,-1.186 -45.03,-1.187 -6.1,-10e-4 -18.87,2.993 -18.97,-5.313 l -10.68,-0.437 -8.29,-3.719 c -1.3,-7.239 -8.48,-13.716 -14.18,-17.844 -9.17,-6.637 -20.67,-10.159 -32.07,-10 z M 92.739,73.341 c 13.481,-0.331 16.811,20.443 2.438,23.156 -14.841,2.802 -19.681,-20.314 -4.5,-22.938 0.71,-0.122 1.399,-0.202 2.062,-0.218 z" />
      <path
         inkscape:connector-curvature="0"
         id="path16625"
         style="opacity:0.7;fill:url(#linearGradient3418)"
         d="m 167.47,106.52 c 3.63,-1.09 6.39,2.91 10.03,2.35 2.65,-0.41 2.01,-3.72 4.25,-4.69 1.27,-0.55 8.94,-3.14 9.9,-2.87 1.91,0.52 2.59,2.94 4.85,2.78 2.98,-0.21 3.93,-3.92 6.59,-4.566 2.4,-0.58 4.12,2.826 5.84,3.936 3.95,2.54 7.71,-1.02 9.47,-4.373 2.79,1.453 4.46,5.423 7.72,5.683 3.08,0.26 5.06,-3.27 7.66,-2.96 4.17,0.48 6.84,4.43 11.87,2.9 5.93,-1.8 11.28,-9.589 16.07,-13.404 1.86,-1.485 4.71,-3.24 5.03,-5.844 0.34,-2.854 -3.44,-6.902 -5.28,-8.813 -3.4,-3.525 -11.85,-1.875 -16.38,-1.875 -15.05,0 -30.02,-1.186 -45.03,-1.187 -6.1,-0.001 -18.87,2.993 -18.97,-5.313 l -8.83,0.305 c 0,0 -5.97,-5.664 -11.4,-1.705 -21.43,15.641 4.5,40.286 6.61,39.646 z" />
      <path
         inkscape:connector-curvature="0"
         id="rect18381"
         style="fill:url(#linearGradient3420);fill-rule:evenodd"
         d="m 181.88,78.375 -7.19,1.281 3.84,4.844 h 87.75 l 0.38,-0.969 -4,-5.156 h -80.78 z m -1.72,8.156 1.72,2.157 h 82.78 l 0.84,-2.157 h -85.34 z" />
      <path
         inkscape:connector-curvature="0"
         id="path19270"
         style="opacity:0.5;fill:url(#linearGradient3422);fill-rule:evenodd"
         d="m 181.88,78.308 -7.21,1.281 3.85,4.844 h 88.08 l 0.38,-0.969 -4.02,-5.156 h -81.08 z m -1.73,8.156 1.73,2.156 h 83.09 l 0.85,-2.156 h -85.67 z" />
      <path
         inkscape:connector-curvature="0"
         id="path26290"
         style="opacity:0.6;fill:url(#radialGradient3424);fill-rule:evenodd"
         d="m 183.5,102.98 a 4.4506,5.6489 0 1 1 -8.9,0 4.4506,5.6489 0 1 1 8.9,0 z"
         transform="translate(-2.37,-0.14812)" />
      <path
         inkscape:connector-curvature="0"
         id="path26292"
         style="opacity:0.6;fill:url(#radialGradient3426);fill-rule:evenodd"
         d="m 183.5,102.98 a 4.4506,5.6489 0 1 1 -8.9,0 4.4506,5.6489 0 1 1 8.9,0 z"
         transform="matrix(1,0,0,0.75089,18.101,21.947)" />
      <path
         inkscape:connector-curvature="0"
         id="path26294"
         style="opacity:0.6;fill:url(#radialGradient3428);fill-rule:evenodd"
         d="m 183.5,102.98 a 4.4506,5.6489 0 1 1 -8.9,0 4.4506,5.6489 0 1 1 8.9,0 z"
         transform="matrix(1.0998,0,0,0.68534,15.481,29.365)" />
      <path
         inkscape:connector-curvature="0"
         id="path26296"
         style="opacity:0.6;fill:url(#radialGradient3430);fill-rule:evenodd"
         d="m 183.5,102.98 a 4.4506,5.6489 0 1 1 -8.9,0 4.4506,5.6489 0 1 1 8.9,0 z"
         transform="matrix(1,0,0,0.79022,48.023,18.712)" />
      <path
         inkscape:connector-curvature="0"
         id="path26298"
         style="opacity:0.6;fill:url(#radialGradient3432);fill-rule:evenodd"
         d="m 183.5,102.98 a 4.4506,5.6489 0 1 1 -8.9,0 4.4506,5.6489 0 1 1 8.9,0 z"
         transform="matrix(0,1,-1.1967,0,367.27,-78.817)" />
      <path
         inkscape:connector-curvature="0"
         id="path26300"
         style="opacity:0.7;fill:url(#radialGradient3434);fill-rule:evenodd"
         d="m 183.5,102.98 a 4.4506,5.6489 0 1 1 -8.9,0 4.4506,5.6489 0 1 1 8.9,0 z"
         transform="matrix(1.6841,0,0,1.3147,-42.707,-50.996)" />
      <path
         inkscape:connector-curvature="0"
         id="path605"
         style="fill:#ffffff"
         d="m 117,38.031 c -2.06,0.031 -4.15,0.202 -6.22,0.438 -7.13,0.812 -14.233,3.874 -20.155,7.843 -5.555,3.724 -9.568,8.464 -13.187,14.032 -10.854,16.699 -10.457,38.906 1.468,55.066 14.714,19.93 46.614,26.1 66.784,10.71 7.12,-5.43 14.6,-12.5 18.43,-20.74 -6.71,3.48 -10.42,11.55 -16,16.56 -10.27,9.22 -25.76,12.49 -39.12,9.94 -5.92,-1.14 -11.427,-3.67 -16.562,-6.76 -37.136,-22.27 -20.882,-80.782 20.722,-84.808 13.02,-1.26 25.8,2.467 35.56,11.25 5.49,4.947 9.98,15.001 17.69,16.469 -5.6,-4.105 -8.37,-10.364 -13.07,-15.343 C 148.1,47.131 141.51,43.662 134.5,40.969 128.83,38.791 122.94,37.943 117,38.031 z M 97.562,74 C 106.61,78.117 107.37,93.821 95,96.156 88.171,97.446 83.435,93.255 81.812,88.094 83.094,94.162 88.252,99.481 95.969,98 109.41,95.421 108.05,77.565 97.562,74 z" />
      <path
         inkscape:connector-curvature="0"
         id="path39445"
         style="opacity:0.7;fill:url(#radialGradient3436);fill-rule:evenodd"
         d="m 158.79,65.549 a 20.11,27.442 0 1 1 -40.22,0 20.11,27.442 0 1 1 40.22,0 z"
         transform="matrix(1.5874,0.57246,-0.31593,0.87607,-74.579,-70.635)" />
    </g>
  </g>
</svg>
